<svg width="16" height="15" viewBox="0 0 16 15" fill="none" xmlns="http://www.w3.org/2000/svg">
<rect width="16" height="15" fill="#EBE9E1"/>
<path d="M8.01587 13.648C5.56787 13.648 4.05487 12.424 3.49387 10.231L5.80587 9.211C6.19687 10.792 6.89387 11.54 8.11787 11.54C9.05287 11.54 9.59687 10.979 9.59687 10.146C9.59687 9.33 9.27387 8.854 8.27087 8.548L6.53687 8.004C4.81987 7.46 4.02087 6.219 4.02087 4.519C4.02087 2.309 5.70387 1 8.08387 1C10.2599 1 11.8069 1.884 12.2999 4.06L10.1579 5.131C9.81787 3.635 9.01887 2.972 7.98187 2.972C7.09787 2.972 6.53687 3.482 6.53687 4.247C6.53687 4.978 6.97887 5.505 7.93087 5.828L9.66487 6.406C11.4669 7.018 12.1979 8.089 12.1979 9.891C12.1979 12.084 10.6679 13.648 8.01587 13.648Z" fill="#E43D12"/>
</svg>
